<svg width="18" height="18" viewBox="0 0 18 18" fill="none" xmlns="http://www.w3.org/2000/svg">
<path opacity="0.15" d="M1.01243 0.903839C1.78639 0.115998 3.04115 0.116079 3.81516 0.903839L8.73802 5.91556L13.4206 1.14896C14.1947 0.360946 15.4493 0.360946 16.2234 1.14896L16.5906 1.522C17.3644 2.30991 17.3642 3.58752 16.5906 4.37552L11.907 9.14212L16.2273 13.5406C17.0012 14.3286 17.0013 15.6061 16.2273 16.3941L15.8611 16.7671C15.087 17.5551 13.8314 17.5551 13.0574 16.7671L8.73802 12.3697L4.17844 17.0122C3.40442 17.8002 2.14876 17.8002 1.37473 17.0122L1.00852 16.6382C0.234656 15.8502 0.234551 14.5727 1.00852 13.7847L5.56809 9.14212L0.645242 4.13138C-0.12861 3.3435 -0.128374 2.06589 0.645242 1.27786L1.01243 0.903839Z" fill="black"/>
</svg>
